<svg width="18" height="18" viewBox="0 0 18 18" fill="none" xmlns="http://www.w3.org/2000/svg">
<path d="M15.8906 2.8125H2.10938C2.03203 2.8125 1.96875 2.87578 1.96875 2.95312V4.07812C1.96875 4.15547 2.03203 4.21875 2.10938 4.21875H15.8906C15.968 4.21875 16.0312 4.15547 16.0312 4.07812V2.95312C16.0312 2.87578 15.968 2.8125 15.8906 2.8125ZM15.8906 13.7812H2.10938C2.03203 13.7812 1.96875 13.8445 1.96875 13.9219V15.0469C1.96875 15.1242 2.03203 15.1875 2.10938 15.1875H15.8906C15.968 15.1875 16.0312 15.1242 16.0312 15.0469V13.9219C16.0312 13.8445 15.968 13.7812 15.8906 13.7812ZM15.8906 8.29688H2.10938C2.03203 8.29688 1.96875 8.36016 1.96875 8.4375V9.5625C1.96875 9.63984 2.03203 9.70312 2.10938 9.70312H15.8906C15.968 9.70312 16.0312 9.63984 16.0312 9.5625V8.4375C16.0312 8.36016 15.968 8.29688 15.8906 8.29688Z" fill="#1E3944"/>
</svg>
