<svg width="40" height="40" viewBox="0 0 40 40" fill="none" xmlns="http://www.w3.org/2000/svg">
<g clip-path="url(#clip0_237_2640)">
<path d="M30.21 23.7815C27.4298 23.7815 25.168 26.0433 25.168 28.8235C25.168 31.6038 27.4298 33.8655 30.21 33.8655C32.9907 33.8655 35.252 31.6038 35.252 28.8235C35.252 26.0433 32.9902 23.7815 30.21 23.7815ZM30.21 31.3445C28.8197 31.3445 27.689 30.2138 27.689 28.8235C27.689 27.4332 28.8197 26.3025 30.21 26.3025C31.6003 26.3025 32.731 27.4332 32.731 28.8235C32.731 30.2139 31.6003 31.3445 30.21 31.3445Z" fill="#9AA6AB"/>
<path d="M12.9834 23.7815C10.2032 23.7815 7.94141 26.0433 7.94141 28.8235C7.94141 31.6038 10.2032 33.8655 12.9834 33.8655C15.7637 33.8655 18.0255 31.6038 18.0255 28.8235C18.0255 26.0433 15.7637 23.7815 12.9834 23.7815ZM12.9834 31.3445C11.5931 31.3445 10.4624 30.2138 10.4624 28.8235C10.4624 27.4332 11.5931 26.3025 12.9834 26.3025C14.3734 26.3025 15.5045 27.4332 15.5045 28.8235C15.5045 30.2139 14.3737 31.3445 12.9834 31.3445Z" fill="#9AA6AB"/>
<path d="M33.6055 9.34961C33.3912 8.92399 32.9555 8.65547 32.479 8.65547H25.8403V11.1765H31.7017L35.134 18.0034L37.387 16.8705L33.6055 9.34961Z" fill="#9AA6AB"/>
<path d="M26.4284 27.6051H16.8906V30.1261H26.4284V27.6051Z" fill="#9AA6AB"/>
<path d="M9.20145 27.6051H4.83176C4.13551 27.6051 3.57129 28.1694 3.57129 28.8655C3.57129 29.5618 4.13559 30.126 4.83176 30.126H9.20153C9.89778 30.126 10.462 29.5617 10.462 28.8655C10.462 28.1693 9.8977 27.6051 9.20145 27.6051Z" fill="#9AA6AB"/>
<path d="M39.7351 19.8992L37.2557 16.7059C37.0175 16.3983 36.6499 16.2184 36.2604 16.2184H27.1007V7.39493C27.1007 6.69868 26.5364 6.13446 25.8402 6.13446H4.83176C4.13551 6.13446 3.57129 6.69876 3.57129 7.39493C3.57129 8.0911 4.13559 8.6554 4.83176 8.6554H24.5797V17.4789C24.5797 18.1752 25.1439 18.7394 25.8401 18.7394H35.6431L37.4788 21.1041V27.6049H33.9914C33.2951 27.6049 32.7309 28.1692 32.7309 28.8654C32.7309 29.5617 33.2952 30.1259 33.9914 30.1259H38.7393C39.4355 30.1259 39.9997 29.5616 39.9998 28.8654V20.6723C39.9998 20.3924 39.9065 20.1202 39.7351 19.8992Z" fill="#9AA6AB"/>
<path d="M9.11743 21.2185H3.31906C2.62281 21.2185 2.05859 21.7828 2.05859 22.479C2.05859 23.1752 2.62289 23.7395 3.31906 23.7395H9.11735C9.8136 23.7395 10.3778 23.1752 10.3778 22.479C10.3779 21.7828 9.8136 21.2185 9.11743 21.2185Z" fill="#9AA6AB"/>
<path d="M12.0168 16.2605H1.26047C0.564297 16.2605 0 16.8248 0 17.521C0 18.2173 0.564297 18.7815 1.26047 18.7815H12.0168C12.713 18.7815 13.2773 18.2172 13.2773 17.521C13.2773 16.8248 12.713 16.2605 12.0168 16.2605Z" fill="#9AA6AB"/>
<path d="M14.0754 11.3025H3.31906C2.62281 11.3025 2.05859 11.8668 2.05859 12.563C2.05859 13.2592 2.62289 13.8234 3.31906 13.8234H14.0754C14.7716 13.8234 15.3359 13.2591 15.3359 12.563C15.3359 11.8668 14.7716 11.3025 14.0754 11.3025Z" fill="#9AA6AB"/>
</g>
<defs>
<clipPath id="clip0_237_2640">
<rect width="40" height="40" fill="white"/>
</clipPath>
</defs>
</svg>
