<svg width="35" height="27" fill="none" xmlns="http://www.w3.org/2000/svg"><path d="M26.434 17.045c-2.433 0-4.412 2.121-4.412 4.728 0 2.606 1.98 4.727 4.412 4.727 2.433 0 4.412-2.12 4.412-4.727s-1.98-4.728-4.412-4.728zm0 7.091c-1.217 0-2.206-1.06-2.206-2.363 0-1.304.99-2.364 2.206-2.364s2.206 1.06 2.206 2.364c0 1.303-.99 2.363-2.206 2.363zM11.36 17.045c-2.433 0-4.412 2.121-4.412 4.728 0 2.606 1.98 4.727 4.412 4.727 2.433 0 4.412-2.12 4.412-4.727s-1.98-4.728-4.412-4.728zm0 7.091c-1.217 0-2.206-1.06-2.206-2.363 0-1.304.99-2.364 2.206-2.364s2.206 1.06 2.206 2.364c0 1.303-.99 2.363-2.206 2.363zM29.405 3.515a1.098 1.098 0 00-.986-.651H22.61v2.363h5.13l3.002 6.401 1.972-1.062-3.31-7.051z" fill="#BCC4C7"/><path d="M23.125 20.63h-8.346v2.364h8.346v-2.363zm-15.073 0H4.228c-.61 0-1.103.53-1.103 1.182 0 .653.494 1.182 1.103 1.182h3.824c.609 0 1.103-.529 1.103-1.182 0-.652-.494-1.181-1.103-1.181zm26.716-7.225L32.6 10.412a1.077 1.077 0 00-.871-.458h-8.015V1.682C23.713 1.029 23.22.5 22.61.5H4.228c-.61 0-1.103.53-1.103 1.182 0 .652.494 1.182 1.103 1.182h17.28v8.272c0 .653.493 1.182 1.102 1.182h8.578l1.606 2.217v6.095h-3.051c-.61 0-1.103.53-1.103 1.182 0 .653.494 1.182 1.103 1.182h4.154c.61 0 1.103-.53 1.103-1.182V14.13c0-.262-.082-.517-.232-.725zm-26.79 1.238H2.904c-.609 0-1.103.529-1.103 1.181 0 .653.494 1.182 1.103 1.182h5.074c.61 0 1.103-.529 1.103-1.182 0-.652-.494-1.181-1.103-1.181zm2.537-4.649H1.103c-.61 0-1.103.529-1.103 1.181 0 .653.494 1.182 1.103 1.182h9.412c.609 0 1.103-.529 1.103-1.181 0-.653-.494-1.182-1.103-1.182z" fill="#BCC4C7"/><path d="M12.316 5.345H2.904c-.609 0-1.103.53-1.103 1.182 0 .653.494 1.182 1.103 1.182h9.412c.61 0 1.103-.53 1.103-1.182 0-.653-.494-1.182-1.103-1.182z" fill="#BCC4C7"/></svg>