<svg width="40" height="40" viewBox="0 0 40 40" fill="none" xmlns="http://www.w3.org/2000/svg">
<g clip-path="url(#clip0_273_2351)">
<path d="M30.2101 23.7812C27.4298 23.7812 25.168 26.043 25.168 28.8233C25.168 31.6035 27.4298 33.8653 30.2101 33.8653C32.9908 33.8653 35.2521 31.6035 35.2521 28.8233C35.2521 26.043 32.9903 23.7812 30.2101 23.7812ZM30.2101 31.3443C28.8197 31.3443 27.689 30.2136 27.689 28.8233C27.689 27.433 28.8197 26.3023 30.2101 26.3023C31.6004 26.3023 32.7311 27.433 32.7311 28.8233C32.7311 30.2137 31.6004 31.3443 30.2101 31.3443Z" fill="#344D57"/>
<path d="M12.9832 23.7812C10.203 23.7812 7.94116 26.043 7.94116 28.8233C7.94116 31.6035 10.203 33.8653 12.9832 33.8653C15.7634 33.8653 18.0252 31.6035 18.0252 28.8233C18.0252 26.043 15.7634 23.7812 12.9832 23.7812ZM12.9832 31.3443C11.5929 31.3443 10.4622 30.2136 10.4622 28.8233C10.4622 27.433 11.5929 26.3023 12.9832 26.3023C14.3731 26.3023 15.5042 27.433 15.5042 28.8233C15.5042 30.2137 14.3735 31.3443 12.9832 31.3443Z" fill="#344D57"/>
<path d="M33.6055 9.34941C33.3912 8.92379 32.9555 8.65527 32.479 8.65527H25.8403V11.1763H31.7017L35.134 18.0032L37.387 16.8704L33.6055 9.34941Z" fill="#344D57"/>
<path d="M26.4286 27.605H16.8908V30.126H26.4286V27.605Z" fill="#344D57"/>
<path d="M9.20163 27.605H4.83194C4.13569 27.605 3.57147 28.1693 3.57147 28.8654C3.57147 29.5617 4.13577 30.1259 4.83194 30.1259H9.20171C9.89796 30.1259 10.4622 29.5616 10.4622 28.8654C10.4622 28.1692 9.89788 27.605 9.20163 27.605Z" fill="#344D57"/>
<path d="M39.7353 19.899L37.2559 16.7057C37.0177 16.3981 36.6501 16.2183 36.2605 16.2183H27.1009V7.39475C27.1009 6.6985 26.5366 6.13428 25.8404 6.13428H4.83194C4.13569 6.13428 3.57147 6.69857 3.57147 7.39475C3.57147 8.09092 4.13577 8.65522 4.83194 8.65522H24.5798V17.4787C24.5798 18.175 25.1441 18.7392 25.8403 18.7392H35.6433L37.479 21.1039V27.6048H33.9916C33.2953 27.6048 32.7311 28.1691 32.7311 28.8652C32.7311 29.5615 33.2954 30.1257 33.9916 30.1257H38.7394C39.4357 30.1257 39.9999 29.5614 40 28.8652V20.6721C40 20.3923 39.9067 20.12 39.7353 19.899Z" fill="#344D57"/>
<path d="M9.11767 21.2188H3.31931C2.62306 21.2188 2.05884 21.783 2.05884 22.4792C2.05884 23.1755 2.62314 23.7397 3.31931 23.7397H9.11759C9.81384 23.7397 10.3781 23.1754 10.3781 22.4792C10.3781 21.783 9.81384 21.2188 9.11767 21.2188Z" fill="#344D57"/>
<path d="M12.0168 16.2603H1.26047C0.564297 16.2603 0 16.8246 0 17.5208C0 18.2171 0.564297 18.7813 1.26047 18.7813H12.0168C12.713 18.7813 13.2773 18.217 13.2773 17.5208C13.2773 16.8246 12.713 16.2603 12.0168 16.2603Z" fill="#344D57"/>
<path d="M14.0756 11.3027H3.31931C2.62306 11.3027 2.05884 11.867 2.05884 12.5632C2.05884 13.2595 2.62313 13.8237 3.31931 13.8237H14.0756C14.7719 13.8237 15.3361 13.2594 15.3361 12.5632C15.3362 11.867 14.7719 11.3027 14.0756 11.3027Z" fill="#344D57"/>
</g>
<defs>
<clipPath id="clip0_273_2351">
<rect width="40" height="40" fill="white"/>
</clipPath>
</defs>
</svg>
