<svg width="18" height="18" viewBox="0 0 18 18" fill="none" xmlns="http://www.w3.org/2000/svg">
<path d="M14.7516 4.88848C14.7149 4.77564 14.6434 4.6773 14.5474 4.60752C14.4514 4.53775 14.3358 4.50011 14.2172 4.5H12.9375V2.53125C12.9375 2.22012 12.6861 1.96875 12.375 1.96875H5.625C5.31387 1.96875 5.0625 2.22012 5.0625 2.53125V4.5H3.78281C3.66409 4.49984 3.54837 4.53737 3.45234 4.60718C3.35631 4.677 3.28491 4.77549 3.24844 4.88848L1.96875 8.82422V15.4688C1.96875 15.7799 2.22012 16.0312 2.53125 16.0312H15.4688C15.7799 16.0312 16.0312 15.7799 16.0312 15.4688V8.82422L14.7516 4.88848ZM6.32812 3.23438H11.6719V4.5H6.32812V3.23438ZM14.7656 14.7656H3.23438V9.02461L4.29434 5.76562H13.7057L14.7656 9.02461V14.7656ZM11.4609 10.0547H9.5625V8.15625C9.5625 8.07891 9.49922 8.01562 9.42188 8.01562H8.57812C8.50078 8.01562 8.4375 8.07891 8.4375 8.15625V10.0547H6.53906C6.46172 10.0547 6.39844 10.118 6.39844 10.1953V11.0391C6.39844 11.1164 6.46172 11.1797 6.53906 11.1797H8.4375V13.0781C8.4375 13.1555 8.50078 13.2188 8.57812 13.2188H9.42188C9.49922 13.2188 9.5625 13.1555 9.5625 13.0781V11.1797H11.4609C11.5383 11.1797 11.6016 11.1164 11.6016 11.0391V10.1953C11.6016 10.118 11.5383 10.0547 11.4609 10.0547Z" fill="#1E3944"/>
</svg>
