<svg width="16" height="16" viewBox="0 0 16 16" fill="none" xmlns="http://www.w3.org/2000/svg">
<path d="M13.7516 3.88848C13.7149 3.77564 13.6434 3.6773 13.5474 3.60752C13.4514 3.53775 13.3358 3.50011 13.2172 3.5H11.9375V1.53125C11.9375 1.22012 11.6861 0.96875 11.375 0.96875H4.625C4.31387 0.96875 4.0625 1.22012 4.0625 1.53125V3.5H2.78281C2.66409 3.49984 2.54837 3.53737 2.45234 3.60718C2.35631 3.677 2.28491 3.77549 2.24844 3.88848L0.96875 7.82422V14.4688C0.96875 14.7799 1.22012 15.0312 1.53125 15.0312H14.4688C14.7799 15.0312 15.0312 14.7799 15.0312 14.4688V7.82422L13.7516 3.88848ZM5.32812 2.23438H10.6719V3.5H5.32812V2.23438ZM13.7656 13.7656H2.23438V8.02461L3.29434 4.76562H12.7057L13.7656 8.02461V13.7656ZM10.4609 9.05469H8.5625V7.15625C8.5625 7.07891 8.49922 7.01562 8.42188 7.01562H7.57812C7.50078 7.01562 7.4375 7.07891 7.4375 7.15625V9.05469H5.53906C5.46172 9.05469 5.39844 9.11797 5.39844 9.19531V10.0391C5.39844 10.1164 5.46172 10.1797 5.53906 10.1797H7.4375V12.0781C7.4375 12.1555 7.50078 12.2188 7.57812 12.2188H8.42188C8.49922 12.2188 8.5625 12.1555 8.5625 12.0781V10.1797H10.4609C10.5383 10.1797 10.6016 10.1164 10.6016 10.0391V9.19531C10.6016 9.11797 10.5383 9.05469 10.4609 9.05469Z" fill="#1E3944"/>
</svg>
